<?xml version="1.0" standalone="no"?>
<!DOCTYPE svg PUBLIC "-//W3C//DTD SVG 20010904//EN"
 "http://www.w3.org/TR/2001/REC-SVG-20010904/DTD/svg10.dtd">
<svg version="1.0" xmlns="http://www.w3.org/2000/svg"
 width="381.000000pt" height="78.000000pt" viewBox="0 0 381.000000 78.000000"
 preserveAspectRatio="xMidYMid meet">
<metadata>
Created by potrace 1.16, written by Peter Selinger 2001-2019
</metadata>
<g transform="translate(0.000000,78.000000) scale(0.100000,-0.100000)"
fill="#000000" stroke="none">
<path d="M96 691 c31 -55 133 -142 209 -177 38 -18 114 -49 167 -67 158 -56
233 -109 299 -210 21 -32 41 -71 44 -87 9 -43 23 -37 30 14 8 52 -7 131 -34
184 -37 70 -156 169 -256 210 -63 26 -106 37 -244 62 -134 24 -157 33 -200 73
l-34 32 19 -34z"/>
<path d="M1210 390 l0 -160 30 0 30 0 0 65 0 65 60 0 c57 0 60 1 60 25 0 24
-3 25 -60 25 l-60 0 0 45 0 45 70 0 c68 0 70 1 70 25 l0 25 -100 0 -100 0 0
-160z"/>
<path d="M1460 390 l0 -160 30 0 30 0 0 160 0 160 -30 0 -30 0 0 -160z"/>
<path d="M1590 390 l0 -160 25 0 25 0 0 111 0 111 87 -111 c67 -86 92 -111
108 -109 19 3 20 9 20 158 l0 155 -27 3 -27 3 -3 -105 -3 -106 -82 105 c-56
71 -89 105 -103 105 -19 0 -20 -6 -20 -160z"/>
<path d="M1957 408 c-31 -79 -59 -151 -63 -161 -6 -16 -2 -18 22 -15 22 2 33
12 47 41 l17 37 64 0 63 0 16 -40 c12 -32 20 -40 41 -40 14 0 26 6 25 13 0 6
-26 77 -57 157 -55 139 -59 145 -88 148 -30 3 -30 3 -87 -140z"/>
<path d="M2230 391 l0 -161 25 0 25 0 0 112 0 111 83 -106 c79 -102 105 -125
127 -112 6 4 10 68 10 161 l0 155 -27 -3 -28 -3 -3 -103 -3 -103 -82 103 c-53
66 -90 104 -105 106 -22 3 -22 3 -22 -157z"/>
<path d="M2810 385 l0 -155 95 0 c57 0 95 4 95 10 0 6 -35 10 -85 10 l-85 0 0
65 0 65 70 0 c40 0 70 4 70 10 0 6 -30 10 -70 10 l-70 0 0 60 0 60 79 0 c44 0
83 5 86 10 4 6 -28 10 -89 10 l-96 0 0 -155z"/>
<path d="M3070 385 c0 -97 4 -155 10 -155 6 0 10 30 10 70 0 70 0 70 28 70 22
0 38 -13 82 -70 50 -64 70 -82 70 -62 0 4 -22 35 -50 69 -55 68 -57 73 -35 73
9 0 27 11 40 25 33 32 33 78 0 110 -21 22 -33 25 -90 25 l-65 0 0 -155z m140
115 c46 -46 3 -110 -75 -110 l-45 0 0 65 0 65 50 0 c37 0 55 -5 70 -20z"/>
<path d="M270 345 c-33 -54 -37 -114 -11 -168 75 -156 312 -134 362 33 11 36
10 42 -7 55 -42 31 -112 59 -198 81 -50 12 -98 25 -107 29 -12 4 -23 -4 -39
-30z m126 -77 c1 -21 6 -44 13 -52 18 -21 56 -25 91 -8 17 8 34 12 37 8 10
-10 -31 -59 -62 -75 -36 -18 -96 -1 -124 36 -37 47 -22 137 22 131 18 -2 22
-10 23 -40z"/>
</g>
</svg>
